<svg height="7294" width="720" xmlns="http://www.w3.org/2000/svg">
<rect height="7294" fill="#555" width="720"></rect>
<text fill="#7f7" font-family="Courier New" font-size="12" xml:space="preserve">
<tspan x="10" y="26">52 megabytes installed</tspan>
<tspan x="10" y="42"></tspan>
<tspan x="10" y="58">node_modules</tspan>
<tspan x="10" y="74">└─┬ npm-upgrade@1.0.2 </tspan>
<tspan x="10" y="90">  ├─┬ babel-runtime@6.23.0 </tspan>
<tspan x="10" y="106">  │ ├── core-js@2.4.1 </tspan>
<tspan x="10" y="122">  │ └── regenerator-runtime@0.10.3 </tspan>
<tspan x="10" y="138">  ├── bluebird@3.5.0 </tspan>
<tspan x="10" y="154">  ├─┬ chalk@1.1.3 </tspan>
<tspan x="10" y="170">  │ ├── ansi-styles@2.2.1 </tspan>
<tspan x="10" y="186">  │ ├── escape-string-regexp@1.0.5 </tspan>
<tspan x="10" y="202">  │ ├─┬ has-ansi@2.0.0 </tspan>
<tspan x="10" y="218">  │ │ └── ansi-regex@2.1.1 </tspan>
<tspan x="10" y="234">  │ ├── strip-ansi@3.0.1 </tspan>
<tspan x="10" y="250">  │ └── supports-color@2.0.0 </tspan>
<tspan x="10" y="266">  ├─┬ cli-table@0.3.1 </tspan>
<tspan x="10" y="282">  │ └── colors@1.0.3 </tspan>
<tspan x="10" y="298">  ├─┬ del@2.2.2 </tspan>
<tspan x="10" y="314">  │ ├─┬ globby@5.0.0 </tspan>
<tspan x="10" y="330">  │ │ ├─┬ array-union@1.0.2 </tspan>
<tspan x="10" y="346">  │ │ │ └── array-uniq@1.0.3 </tspan>
<tspan x="10" y="362">  │ │ ├── arrify@1.0.1 </tspan>
<tspan x="10" y="378">  │ │ └─┬ glob@7.1.1 </tspan>
<tspan x="10" y="394">  │ │   ├── fs.realpath@1.0.0 </tspan>
<tspan x="10" y="410">  │ │   ├─┬ inflight@1.0.6 </tspan>
<tspan x="10" y="426">  │ │   │ └── wrappy@1.0.2 </tspan>
<tspan x="10" y="442">  │ │   ├── inherits@2.0.3 </tspan>
<tspan x="10" y="458">  │ │   ├─┬ minimatch@3.0.3 </tspan>
<tspan x="10" y="474">  │ │   │ └─┬ brace-expansion@1.1.7 </tspan>
<tspan x="10" y="490">  │ │   │   ├── balanced-match@0.4.2 </tspan>
<tspan x="10" y="506">  │ │   │   └── concat-map@0.0.1 </tspan>
<tspan x="10" y="522">  │ │   ├── once@1.4.0 </tspan>
<tspan x="10" y="538">  │ │   └── path-is-absolute@1.0.1 </tspan>
<tspan x="10" y="554">  │ ├── is-path-cwd@1.0.0 </tspan>
<tspan x="10" y="570">  │ ├─┬ is-path-in-cwd@1.0.0 </tspan>
<tspan x="10" y="586">  │ │ └─┬ is-path-inside@1.0.0 </tspan>
<tspan x="10" y="602">  │ │   └── path-is-inside@1.0.2 </tspan>
<tspan x="10" y="618">  │ ├── object-assign@4.1.1 </tspan>
<tspan x="10" y="634">  │ ├── pify@2.3.0 </tspan>
<tspan x="10" y="650">  │ ├─┬ pinkie-promise@2.0.1 </tspan>
<tspan x="10" y="666">  │ │ └── pinkie@2.0.4 </tspan>
<tspan x="10" y="682">  │ └── rimraf@2.6.1 </tspan>
<tspan x="10" y="698">  ├─┬ got@6.7.1 </tspan>
<tspan x="10" y="714">  │ ├─┬ create-error-class@3.0.2 </tspan>
<tspan x="10" y="730">  │ │ └── capture-stack-trace@1.0.0 </tspan>
<tspan x="10" y="746">  │ ├── duplexer3@0.1.4 </tspan>
<tspan x="10" y="762">  │ ├── get-stream@3.0.0 </tspan>
<tspan x="10" y="778">  │ ├── is-redirect@1.0.0 </tspan>
<tspan x="10" y="794">  │ ├── is-retry-allowed@1.1.0 </tspan>
<tspan x="10" y="810">  │ ├── is-stream@1.1.0 </tspan>
<tspan x="10" y="826">  │ ├── lowercase-keys@1.0.0 </tspan>
<tspan x="10" y="842">  │ ├── safe-buffer@5.0.1 </tspan>
<tspan x="10" y="858">  │ ├── timed-out@4.0.1 </tspan>
<tspan x="10" y="874">  │ ├── unzip-response@2.0.1 </tspan>
<tspan x="10" y="890">  │ └─┬ url-parse-lax@1.0.0 </tspan>
<tspan x="10" y="906">  │   └── prepend-http@1.0.4 </tspan>
<tspan x="10" y="922">  ├─┬ inquirer@3.0.6 </tspan>
<tspan x="10" y="938">  │ ├── ansi-escapes@1.4.0 </tspan>
<tspan x="10" y="954">  │ ├─┬ cli-cursor@2.1.0 </tspan>
<tspan x="10" y="970">  │ │ └─┬ restore-cursor@2.0.0 </tspan>
<tspan x="10" y="986">  │ │   ├─┬ onetime@2.0.1 </tspan>
<tspan x="10" y="1002">  │ │   │ └── mimic-fn@1.1.0 </tspan>
<tspan x="10" y="1018">  │ │   └── signal-exit@3.0.2 </tspan>
<tspan x="10" y="1034">  │ ├── cli-width@2.1.0 </tspan>
<tspan x="10" y="1050">  │ ├─┬ external-editor@2.0.1 </tspan>
<tspan x="10" y="1066">  │ │ └─┬ tmp@0.0.31 </tspan>
<tspan x="10" y="1082">  │ │   └── os-tmpdir@1.0.2 </tspan>
<tspan x="10" y="1098">  │ ├── figures@2.0.0 </tspan>
<tspan x="10" y="1114">  │ ├── mute-stream@0.0.7 </tspan>
<tspan x="10" y="1130">  │ ├─┬ run-async@2.3.0 </tspan>
<tspan x="10" y="1146">  │ │ └── is-promise@2.1.0 </tspan>
<tspan x="10" y="1162">  │ ├── rx@4.1.0 </tspan>
<tspan x="10" y="1178">  │ ├─┬ string-width@2.0.0 </tspan>
<tspan x="10" y="1194">  │ │ └── is-fullwidth-code-point@2.0.0 </tspan>
<tspan x="10" y="1210">  │ └── through@2.3.8 </tspan>
<tspan x="10" y="1226">  ├── lodash@4.17.4 </tspan>
<tspan x="10" y="1242">  ├─┬ npm@3.10.10 </tspan>
<tspan x="10" y="1258">  │ ├── abbrev@1.0.9 </tspan>
<tspan x="10" y="1274">  │ ├── ansi-regex@2.0.0 </tspan>
<tspan x="10" y="1290">  │ ├── ansicolors@0.3.2 </tspan>
<tspan x="10" y="1306">  │ ├── ansistyles@0.1.3 </tspan>
<tspan x="10" y="1322">  │ ├── aproba@1.0.4 </tspan>
<tspan x="10" y="1338">  │ ├── archy@1.0.0 </tspan>
<tspan x="10" y="1354">  │ ├── asap@2.0.5 </tspan>
<tspan x="10" y="1370">  │ ├── chownr@1.0.1 </tspan>
<tspan x="10" y="1386">  │ ├── cmd-shim@2.0.2 </tspan>
<tspan x="10" y="1402">  │ ├─┬ columnify@1.5.4 </tspan>
<tspan x="10" y="1418">  │ │ └─┬ wcwidth@1.0.0 </tspan>
<tspan x="10" y="1434">  │ │   └─┬ defaults@1.0.3 </tspan>
<tspan x="10" y="1450">  │ │     └── clone@1.0.2 </tspan>
<tspan x="10" y="1466">  │ ├─┬ config-chain@1.1.11 </tspan>
<tspan x="10" y="1482">  │ │ └── proto-list@1.2.4 </tspan>
<tspan x="10" y="1498">  │ ├── debuglog@1.0.1 </tspan>
<tspan x="10" y="1514">  │ ├── dezalgo@1.0.3 </tspan>
<tspan x="10" y="1530">  │ ├── editor@1.0.0 </tspan>
<tspan x="10" y="1546">  │ ├── fs-vacuum@1.2.9 </tspan>
<tspan x="10" y="1562">  │ ├── fs-write-stream-atomic@1.0.8 </tspan>
<tspan x="10" y="1578">  │ ├── fstream@1.0.10 </tspan>
<tspan x="10" y="1594">  │ ├─┬ fstream-npm@1.2.0 </tspan>
<tspan x="10" y="1610">  │ │ └─┬ fstream-ignore@1.0.5 </tspan>
<tspan x="10" y="1626">  │ │   └─┬ minimatch@3.0.3 </tspan>
<tspan x="10" y="1642">  │ │     └─┬ brace-expansion@1.1.6 </tspan>
<tspan x="10" y="1658">  │ │       ├── balanced-match@0.4.2 </tspan>
<tspan x="10" y="1674">  │ │       └── concat-map@0.0.1 </tspan>
<tspan x="10" y="1690">  │ ├─┬ glob@7.1.0 </tspan>
<tspan x="10" y="1706">  │ │ ├── fs.realpath@1.0.0 </tspan>
<tspan x="10" y="1722">  │ │ ├─┬ minimatch@3.0.3 </tspan>
<tspan x="10" y="1738">  │ │ │ └─┬ brace-expansion@1.1.6 </tspan>
<tspan x="10" y="1754">  │ │ │   ├── balanced-match@0.4.2 </tspan>
<tspan x="10" y="1770">  │ │ │   └── concat-map@0.0.1 </tspan>
<tspan x="10" y="1786">  │ │ └── path-is-absolute@1.0.1 </tspan>
<tspan x="10" y="1802">  │ ├── graceful-fs@4.1.9 </tspan>
<tspan x="10" y="1818">  │ ├── has-unicode@2.0.1 </tspan>
<tspan x="10" y="1834">  │ ├── hosted-git-info@2.1.5 </tspan>
<tspan x="10" y="1850">  │ ├── iferr@0.1.5 </tspan>
<tspan x="10" y="1866">  │ ├── imurmurhash@0.1.4 </tspan>
<tspan x="10" y="1882">  │ ├── inflight@1.0.5 </tspan>
<tspan x="10" y="1898">  │ ├── inherits@2.0.3 </tspan>
<tspan x="10" y="1914">  │ ├── ini@1.3.4 </tspan>
<tspan x="10" y="1930">  │ ├─┬ init-package-json@1.9.4 </tspan>
<tspan x="10" y="1946">  │ │ ├─┬ glob@6.0.4 </tspan>
<tspan x="10" y="1962">  │ │ │ ├─┬ minimatch@3.0.3 </tspan>
<tspan x="10" y="1978">  │ │ │ │ └─┬ brace-expansion@1.1.6 </tspan>
<tspan x="10" y="1994">  │ │ │ │   ├── balanced-match@0.4.2 </tspan>
<tspan x="10" y="2010">  │ │ │ │   └── concat-map@0.0.1 </tspan>
<tspan x="10" y="2026">  │ │ │ └── path-is-absolute@1.0.0 </tspan>
<tspan x="10" y="2042">  │ │ └── promzard@0.3.0 </tspan>
<tspan x="10" y="2058">  │ ├── lockfile@1.0.2 </tspan>
<tspan x="10" y="2074">  │ ├── lodash._baseindexof@3.1.0 </tspan>
<tspan x="10" y="2090">  │ ├─┬ lodash._baseuniq@4.6.0 </tspan>
<tspan x="10" y="2106">  │ │ ├── lodash._createset@4.0.3 </tspan>
<tspan x="10" y="2122">  │ │ └── lodash._root@3.0.1 </tspan>
<tspan x="10" y="2138">  │ ├── lodash._bindcallback@3.0.1 </tspan>
<tspan x="10" y="2154">  │ ├── lodash._cacheindexof@3.0.2 </tspan>
<tspan x="10" y="2170">  │ ├── lodash._createcache@3.1.2 </tspan>
<tspan x="10" y="2186">  │ ├── lodash._getnative@3.9.1 </tspan>
<tspan x="10" y="2202">  │ ├── lodash.clonedeep@4.5.0 </tspan>
<tspan x="10" y="2218">  │ ├── lodash.restparam@3.6.1 </tspan>
<tspan x="10" y="2234">  │ ├── lodash.union@4.6.0 </tspan>
<tspan x="10" y="2250">  │ ├── lodash.uniq@4.5.0 </tspan>
<tspan x="10" y="2266">  │ ├── lodash.without@4.4.0 </tspan>
<tspan x="10" y="2282">  │ ├─┬ mkdirp@0.5.1 </tspan>
<tspan x="10" y="2298">  │ │ └── minimist@0.0.8 </tspan>
<tspan x="10" y="2314">  │ ├─┬ node-gyp@3.4.0 </tspan>
<tspan x="10" y="2330">  │ │ ├─┬ minimatch@3.0.3 </tspan>
<tspan x="10" y="2346">  │ │ │ └─┬ brace-expansion@1.1.6 </tspan>
<tspan x="10" y="2362">  │ │ │   ├── balanced-match@0.4.2 </tspan>
<tspan x="10" y="2378">  │ │ │   └── concat-map@0.0.1 </tspan>
<tspan x="10" y="2394">  │ │ ├─┬ npmlog@3.1.2 </tspan>
<tspan x="10" y="2410">  │ │ │ ├─┬ are-we-there-yet@1.1.2 </tspan>
<tspan x="10" y="2426">  │ │ │ │ └── delegates@1.0.0 </tspan>
<tspan x="10" y="2442">  │ │ │ ├── console-control-strings@1.1.0 </tspan>
<tspan x="10" y="2458">  │ │ │ ├─┬ gauge@2.6.0 </tspan>
<tspan x="10" y="2474">  │ │ │ │ ├── has-color@0.1.7 </tspan>
<tspan x="10" y="2490">  │ │ │ │ ├── object-assign@4.1.0 </tspan>
<tspan x="10" y="2506">  │ │ │ │ ├── signal-exit@3.0.0 </tspan>
<tspan x="10" y="2522">  │ │ │ │ ├─┬ string-width@1.0.2 </tspan>
<tspan x="10" y="2538">  │ │ │ │ │ ├─┬ code-point-at@1.0.0 </tspan>
<tspan x="10" y="2554">  │ │ │ │ │ │ └── number-is-nan@1.0.0 </tspan>
<tspan x="10" y="2570">  │ │ │ │ │ └─┬ is-fullwidth-code-point@1.0.0 </tspan>
<tspan x="10" y="2586">  │ │ │ │ │   └── number-is-nan@1.0.0 </tspan>
<tspan x="10" y="2602">  │ │ │ │ └── wide-align@1.1.0 </tspan>
<tspan x="10" y="2618">  │ │ │ └── set-blocking@2.0.0 </tspan>
<tspan x="10" y="2634">  │ │ └─┬ path-array@1.0.1 </tspan>
<tspan x="10" y="2650">  │ │   └─┬ array-index@1.0.0 </tspan>
<tspan x="10" y="2666">  │ │     ├─┬ debug@2.2.0 </tspan>
<tspan x="10" y="2682">  │ │     │ └── ms@0.7.1 </tspan>
<tspan x="10" y="2698">  │ │     └─┬ es6-symbol@3.1.0 </tspan>
<tspan x="10" y="2714">  │ │       ├── d@0.1.1 </tspan>
<tspan x="10" y="2730">  │ │       └─┬ es5-ext@0.10.12 </tspan>
<tspan x="10" y="2746">  │ │         └── es6-iterator@2.0.0 </tspan>
<tspan x="10" y="2762">  │ ├── nopt@3.0.6 </tspan>
<tspan x="10" y="2778">  │ ├── normalize-git-url@3.0.2 </tspan>
<tspan x="10" y="2794">  │ ├─┬ normalize-package-data@2.3.5 </tspan>
<tspan x="10" y="2810">  │ │ └─┬ is-builtin-module@1.0.0 </tspan>
<tspan x="10" y="2826">  │ │   └── builtin-modules@1.1.1 </tspan>
<tspan x="10" y="2842">  │ ├── npm-cache-filename@1.0.2 </tspan>
<tspan x="10" y="2858">  │ ├── npm-install-checks@3.0.0 </tspan>
<tspan x="10" y="2874">  │ ├── npm-package-arg@4.2.0 </tspan>
<tspan x="10" y="2890">  │ ├─┬ npm-registry-client@7.2.1 </tspan>
<tspan x="10" y="2906">  │ │ ├─┬ concat-stream@1.5.2 </tspan>
<tspan x="10" y="2922">  │ │ │ ├─┬ readable-stream@2.0.6 </tspan>
<tspan x="10" y="2938">  │ │ │ │ ├── core-util-is@1.0.2 </tspan>
<tspan x="10" y="2954">  │ │ │ │ ├── isarray@1.0.0 </tspan>
<tspan x="10" y="2970">  │ │ │ │ ├── process-nextick-args@1.0.7 </tspan>
<tspan x="10" y="2986">  │ │ │ │ ├── string_decoder@0.10.31 </tspan>
<tspan x="10" y="3002">  │ │ │ │ └── util-deprecate@1.0.2 </tspan>
<tspan x="10" y="3018">  │ │ │ └── typedarray@0.0.6 </tspan>
<tspan x="10" y="3034">  │ │ ├─┬ npmlog@3.1.2 </tspan>
<tspan x="10" y="3050">  │ │ │ ├─┬ are-we-there-yet@1.1.2 </tspan>
<tspan x="10" y="3066">  │ │ │ │ └── delegates@1.0.0 </tspan>
<tspan x="10" y="3082">  │ │ │ ├── console-control-strings@1.1.0 </tspan>
<tspan x="10" y="3098">  │ │ │ ├─┬ gauge@2.6.0 </tspan>
<tspan x="10" y="3114">  │ │ │ │ ├── has-color@0.1.7 </tspan>
<tspan x="10" y="3130">  │ │ │ │ ├── object-assign@4.1.0 </tspan>
<tspan x="10" y="3146">  │ │ │ │ ├── signal-exit@3.0.0 </tspan>
<tspan x="10" y="3162">  │ │ │ │ ├─┬ string-width@1.0.2 </tspan>
<tspan x="10" y="3178">  │ │ │ │ │ ├─┬ code-point-at@1.0.0 </tspan>
<tspan x="10" y="3194">  │ │ │ │ │ │ └── number-is-nan@1.0.0 </tspan>
<tspan x="10" y="3210">  │ │ │ │ │ └─┬ is-fullwidth-code-point@1.0.0 </tspan>
<tspan x="10" y="3226">  │ │ │ │ │   └── number-is-nan@1.0.0 </tspan>
<tspan x="10" y="3242">  │ │ │ │ └── wide-align@1.1.0 </tspan>
<tspan x="10" y="3258">  │ │ │ └── set-blocking@2.0.0 </tspan>
<tspan x="10" y="3274">  │ │ └── retry@0.10.0 </tspan>
<tspan x="10" y="3290">  │ ├── npm-user-validate@0.1.5 </tspan>
<tspan x="10" y="3306">  │ ├─┬ npmlog@4.0.0 </tspan>
<tspan x="10" y="3322">  │ │ ├─┬ are-we-there-yet@1.1.2 </tspan>
<tspan x="10" y="3338">  │ │ │ └── delegates@1.0.0 </tspan>
<tspan x="10" y="3354">  │ │ ├── console-control-strings@1.1.0 </tspan>
<tspan x="10" y="3370">  │ │ ├─┬ gauge@2.6.0 </tspan>
<tspan x="10" y="3386">  │ │ │ ├── has-color@0.1.7 </tspan>
<tspan x="10" y="3402">  │ │ │ ├── object-assign@4.1.0 </tspan>
<tspan x="10" y="3418">  │ │ │ ├── signal-exit@3.0.0 </tspan>
<tspan x="10" y="3434">  │ │ │ ├─┬ string-width@1.0.2 </tspan>
<tspan x="10" y="3450">  │ │ │ │ ├─┬ code-point-at@1.0.0 </tspan>
<tspan x="10" y="3466">  │ │ │ │ │ └── number-is-nan@1.0.0 </tspan>
<tspan x="10" y="3482">  │ │ │ │ └─┬ is-fullwidth-code-point@1.0.0 </tspan>
<tspan x="10" y="3498">  │ │ │ │   └── number-is-nan@1.0.0 </tspan>
<tspan x="10" y="3514">  │ │ │ └── wide-align@1.1.0 </tspan>
<tspan x="10" y="3530">  │ │ └── set-blocking@2.0.0 </tspan>
<tspan x="10" y="3546">  │ ├── once@1.4.0 </tspan>
<tspan x="10" y="3562">  │ ├── opener@1.4.2 </tspan>
<tspan x="10" y="3578">  │ ├─┬ osenv@0.1.3 </tspan>
<tspan x="10" y="3594">  │ │ ├── os-homedir@1.0.1 </tspan>
<tspan x="10" y="3610">  │ │ └── os-tmpdir@1.0.1 </tspan>
<tspan x="10" y="3626">  │ ├── path-is-inside@1.0.2 </tspan>
<tspan x="10" y="3642">  │ ├─┬ read@1.0.7 </tspan>
<tspan x="10" y="3658">  │ │ └── mute-stream@0.0.5 </tspan>
<tspan x="10" y="3674">  │ ├── read-cmd-shim@1.0.1 </tspan>
<tspan x="10" y="3690">  │ ├─┬ read-installed@4.0.3 </tspan>
<tspan x="10" y="3706">  │ │ └── util-extend@1.0.3 </tspan>
<tspan x="10" y="3722">  │ ├─┬ read-package-json@2.0.4 </tspan>
<tspan x="10" y="3738">  │ │ ├─┬ glob@6.0.4 </tspan>
<tspan x="10" y="3754">  │ │ │ ├─┬ minimatch@3.0.3 </tspan>
<tspan x="10" y="3770">  │ │ │ │ └─┬ brace-expansion@1.1.6 </tspan>
<tspan x="10" y="3786">  │ │ │ │   ├── balanced-match@0.4.2 </tspan>
<tspan x="10" y="3802">  │ │ │ │   └── concat-map@0.0.1 </tspan>
<tspan x="10" y="3818">  │ │ │ └── path-is-absolute@1.0.0 </tspan>
<tspan x="10" y="3834">  │ │ └─┬ json-parse-helpfulerror@1.0.3 </tspan>
<tspan x="10" y="3850">  │ │   └── jju@1.3.0 </tspan>
<tspan x="10" y="3866">  │ ├── read-package-tree@5.1.5 </tspan>
<tspan x="10" y="3882">  │ ├─┬ readable-stream@2.1.5 </tspan>
<tspan x="10" y="3898">  │ │ ├── buffer-shims@1.0.0 </tspan>
<tspan x="10" y="3914">  │ │ ├── core-util-is@1.0.2 </tspan>
<tspan x="10" y="3930">  │ │ ├── isarray@1.0.0 </tspan>
<tspan x="10" y="3946">  │ │ ├── process-nextick-args@1.0.7 </tspan>
<tspan x="10" y="3962">  │ │ ├── string_decoder@0.10.31 </tspan>
<tspan x="10" y="3978">  │ │ └── util-deprecate@1.0.2 </tspan>
<tspan x="10" y="3994">  │ ├── readdir-scoped-modules@1.0.2 </tspan>
<tspan x="10" y="4010">  │ ├── realize-package-specifier@3.0.3 </tspan>
<tspan x="10" y="4026">  │ ├─┬ request@2.75.0 </tspan>
<tspan x="10" y="4042">  │ │ ├── aws-sign2@0.6.0 </tspan>
<tspan x="10" y="4058">  │ │ ├── aws4@1.4.1 </tspan>
<tspan x="10" y="4074">  │ │ ├─┬ bl@1.1.2 </tspan>
<tspan x="10" y="4090">  │ │ │ └─┬ readable-stream@2.0.6 </tspan>
<tspan x="10" y="4106">  │ │ │   ├── core-util-is@1.0.2 </tspan>
<tspan x="10" y="4122">  │ │ │   ├── isarray@1.0.0 </tspan>
<tspan x="10" y="4138">  │ │ │   ├── process-nextick-args@1.0.7 </tspan>
<tspan x="10" y="4154">  │ │ │   ├── string_decoder@0.10.31 </tspan>
<tspan x="10" y="4170">  │ │ │   └── util-deprecate@1.0.2 </tspan>
<tspan x="10" y="4186">  │ │ ├── caseless@0.11.0 </tspan>
<tspan x="10" y="4202">  │ │ ├─┬ combined-stream@1.0.5 </tspan>
<tspan x="10" y="4218">  │ │ │ └── delayed-stream@1.0.0 </tspan>
<tspan x="10" y="4234">  │ │ ├── extend@3.0.0 </tspan>
<tspan x="10" y="4250">  │ │ ├── forever-agent@0.6.1 </tspan>
<tspan x="10" y="4266">  │ │ ├─┬ form-data@2.0.0 </tspan>
<tspan x="10" y="4282">  │ │ │ └── asynckit@0.4.0 </tspan>
<tspan x="10" y="4298">  │ │ ├─┬ har-validator@2.0.6 </tspan>
<tspan x="10" y="4314">  │ │ │ ├─┬ chalk@1.1.3 </tspan>
<tspan x="10" y="4330">  │ │ │ │ ├── ansi-styles@2.2.1 </tspan>
<tspan x="10" y="4346">  │ │ │ │ ├── escape-string-regexp@1.0.5 </tspan>
<tspan x="10" y="4362">  │ │ │ │ ├── has-ansi@2.0.0 </tspan>
<tspan x="10" y="4378">  │ │ │ │ └── supports-color@2.0.0 </tspan>
<tspan x="10" y="4394">  │ │ │ ├─┬ commander@2.9.0 </tspan>
<tspan x="10" y="4410">  │ │ │ │ └── graceful-readlink@1.0.1 </tspan>
<tspan x="10" y="4426">  │ │ │ ├─┬ is-my-json-valid@2.15.0 </tspan>
<tspan x="10" y="4442">  │ │ │ │ ├── generate-function@2.0.0 </tspan>
<tspan x="10" y="4458">  │ │ │ │ ├─┬ generate-object-property@1.2.0 </tspan>
<tspan x="10" y="4474">  │ │ │ │ │ └── is-property@1.0.2 </tspan>
<tspan x="10" y="4490">  │ │ │ │ ├── jsonpointer@4.0.0 </tspan>
<tspan x="10" y="4506">  │ │ │ │ └── xtend@4.0.1 </tspan>
<tspan x="10" y="4522">  │ │ │ └─┬ pinkie-promise@2.0.1 </tspan>
<tspan x="10" y="4538">  │ │ │   └── pinkie@2.0.4 </tspan>
<tspan x="10" y="4554">  │ │ ├─┬ hawk@3.1.3 </tspan>
<tspan x="10" y="4570">  │ │ │ ├── boom@2.10.1 </tspan>
<tspan x="10" y="4586">  │ │ │ ├── cryptiles@2.0.5 </tspan>
<tspan x="10" y="4602">  │ │ │ ├── hoek@2.16.3 </tspan>
<tspan x="10" y="4618">  │ │ │ └── sntp@1.0.9 </tspan>
<tspan x="10" y="4634">  │ │ ├─┬ http-signature@1.1.1 </tspan>
<tspan x="10" y="4650">  │ │ │ ├── assert-plus@0.2.0 </tspan>
<tspan x="10" y="4666">  │ │ │ ├─┬ jsprim@1.3.1 </tspan>
<tspan x="10" y="4682">  │ │ │ │ ├── extsprintf@1.0.2 </tspan>
<tspan x="10" y="4698">  │ │ │ │ ├── json-schema@0.2.3 </tspan>
<tspan x="10" y="4714">  │ │ │ │ └── verror@1.3.6 </tspan>
<tspan x="10" y="4730">  │ │ │ └─┬ sshpk@1.10.1 </tspan>
<tspan x="10" y="4746">  │ │ │   ├── asn1@0.2.3 </tspan>
<tspan x="10" y="4762">  │ │ │   ├── assert-plus@1.0.0 </tspan>
<tspan x="10" y="4778">  │ │ │   ├── bcrypt-pbkdf@1.0.0 </tspan>
<tspan x="10" y="4794">  │ │ │   ├── dashdash@1.14.0 </tspan>
<tspan x="10" y="4810">  │ │ │   ├── ecc-jsbn@0.1.1 </tspan>
<tspan x="10" y="4826">  │ │ │   ├── getpass@0.1.6 </tspan>
<tspan x="10" y="4842">  │ │ │   ├── jodid25519@1.0.2 </tspan>
<tspan x="10" y="4858">  │ │ │   ├── jsbn@0.1.0 </tspan>
<tspan x="10" y="4874">  │ │ │   └── tweetnacl@0.14.3 </tspan>
<tspan x="10" y="4890">  │ │ ├── is-typedarray@1.0.0 </tspan>
<tspan x="10" y="4906">  │ │ ├── isstream@0.1.2 </tspan>
<tspan x="10" y="4922">  │ │ ├── json-stringify-safe@5.0.1 </tspan>
<tspan x="10" y="4938">  │ │ ├─┬ mime-types@2.1.12 </tspan>
<tspan x="10" y="4954">  │ │ │ └── mime-db@1.24.0 </tspan>
<tspan x="10" y="4970">  │ │ ├── node-uuid@1.4.7 </tspan>
<tspan x="10" y="4986">  │ │ ├── oauth-sign@0.8.2 </tspan>
<tspan x="10" y="5002">  │ │ ├── qs@6.2.1 </tspan>
<tspan x="10" y="5018">  │ │ ├── stringstream@0.0.5 </tspan>
<tspan x="10" y="5034">  │ │ ├── tough-cookie@2.3.1 </tspan>
<tspan x="10" y="5050">  │ │ └── tunnel-agent@0.4.3 </tspan>
<tspan x="10" y="5066">  │ ├── retry@0.10.0 </tspan>
<tspan x="10" y="5082">  │ ├── rimraf@2.5.4 </tspan>
<tspan x="10" y="5098">  │ ├── semver@5.3.0 </tspan>
<tspan x="10" y="5114">  │ ├── sha@2.0.1 </tspan>
<tspan x="10" y="5130">  │ ├── slide@1.1.6 </tspan>
<tspan x="10" y="5146">  │ ├── sorted-object@2.0.1 </tspan>
<tspan x="10" y="5162">  │ ├── strip-ansi@3.0.1 </tspan>
<tspan x="10" y="5178">  │ ├─┬ tar@2.2.1 </tspan>
<tspan x="10" y="5194">  │ │ └── block-stream@0.0.8 </tspan>
<tspan x="10" y="5210">  │ ├── text-table@0.2.0 </tspan>
<tspan x="10" y="5226">  │ ├── uid-number@0.0.6 </tspan>
<tspan x="10" y="5242">  │ ├── umask@1.1.0 </tspan>
<tspan x="10" y="5258">  │ ├─┬ unique-filename@1.1.0 </tspan>
<tspan x="10" y="5274">  │ │ └── unique-slug@2.0.0 </tspan>
<tspan x="10" y="5290">  │ ├── unpipe@1.0.0 </tspan>
<tspan x="10" y="5306">  │ ├─┬ validate-npm-package-license@3.0.1 </tspan>
<tspan x="10" y="5322">  │ │ ├─┬ spdx-correct@1.0.2 </tspan>
<tspan x="10" y="5338">  │ │ │ └── spdx-license-ids@1.2.0 </tspan>
<tspan x="10" y="5354">  │ │ └─┬ spdx-expression-parse@1.0.2 </tspan>
<tspan x="10" y="5370">  │ │   ├── spdx-exceptions@1.0.4 </tspan>
<tspan x="10" y="5386">  │ │   └── spdx-license-ids@1.2.0 </tspan>
<tspan x="10" y="5402">  │ ├─┬ validate-npm-package-name@2.2.2 </tspan>
<tspan x="10" y="5418">  │ │ └── builtins@0.0.7 </tspan>
<tspan x="10" y="5434">  │ ├─┬ which@1.2.11 </tspan>
<tspan x="10" y="5450">  │ │ └── isexe@1.1.2 </tspan>
<tspan x="10" y="5466">  │ ├── wrappy@1.0.2 </tspan>
<tspan x="10" y="5482">  │ └── write-file-atomic@1.2.0 </tspan>
<tspan x="10" y="5498">  ├─┬ npm-check-updates@2.10.3 </tspan>
<tspan x="10" y="5514">  │ ├── cint@8.2.1 </tspan>
<tspan x="10" y="5530">  │ ├─┬ commander@2.9.0 </tspan>
<tspan x="10" y="5546">  │ │ └── graceful-readlink@1.0.1 </tspan>
<tspan x="10" y="5562">  │ ├── fast-diff@1.1.1 </tspan>
<tspan x="10" y="5578">  │ ├─┬ find-up@1.1.2 </tspan>
<tspan x="10" y="5594">  │ │ └── path-exists@2.1.0 </tspan>
<tspan x="10" y="5610">  │ ├── get-stdin@5.0.1 </tspan>
<tspan x="10" y="5626">  │ ├─┬ json-parse-helpfulerror@1.0.3 </tspan>
<tspan x="10" y="5642">  │ │ └── jju@1.3.0 </tspan>
<tspan x="10" y="5658">  │ ├── node-alias@1.0.4 </tspan>
<tspan x="10" y="5674">  │ ├─┬ npmi@2.0.1 </tspan>
<tspan x="10" y="5690">  │ │ └── semver@4.3.6 </tspan>
<tspan x="10" y="5706">  │ ├── require-dir@0.3.1 </tspan>
<tspan x="10" y="5722">  │ ├── semver-utils@1.1.1 </tspan>
<tspan x="10" y="5738">  │ ├── spawn-please@0.2.0 </tspan>
<tspan x="10" y="5754">  │ └─┬ update-notifier@1.0.3 </tspan>
<tspan x="10" y="5770">  │   ├─┬ boxen@0.6.0 </tspan>
<tspan x="10" y="5786">  │   │ ├─┬ ansi-align@1.1.0 </tspan>
<tspan x="10" y="5802">  │   │ │ └─┬ string-width@1.0.2 </tspan>
<tspan x="10" y="5818">  │   │ │   └── is-fullwidth-code-point@1.0.0 </tspan>
<tspan x="10" y="5834">  │   │ ├── camelcase@2.1.1 </tspan>
<tspan x="10" y="5850">  │   │ ├── cli-boxes@1.0.0 </tspan>
<tspan x="10" y="5866">  │   │ ├── filled-array@1.1.0 </tspan>
<tspan x="10" y="5882">  │   │ ├─┬ repeating@2.0.1 </tspan>
<tspan x="10" y="5898">  │   │ │ └── is-finite@1.0.2 </tspan>
<tspan x="10" y="5914">  │   │ ├─┬ string-width@1.0.2 </tspan>
<tspan x="10" y="5930">  │   │ │ └── is-fullwidth-code-point@1.0.0 </tspan>
<tspan x="10" y="5946">  │   │ └─┬ widest-line@1.0.0 </tspan>
<tspan x="10" y="5962">  │   │   └─┬ string-width@1.0.2 </tspan>
<tspan x="10" y="5978">  │   │     └── is-fullwidth-code-point@1.0.0 </tspan>
<tspan x="10" y="5994">  │   ├─┬ configstore@2.1.0 </tspan>
<tspan x="10" y="6010">  │   │ ├─┬ dot-prop@3.0.0 </tspan>
<tspan x="10" y="6026">  │   │ │ └── is-obj@1.0.1 </tspan>
<tspan x="10" y="6042">  │   │ ├── graceful-fs@4.1.11 </tspan>
<tspan x="10" y="6058">  │   │ ├─┬ mkdirp@0.5.1 </tspan>
<tspan x="10" y="6074">  │   │ │ └── minimist@0.0.8 </tspan>
<tspan x="10" y="6090">  │   │ ├── osenv@0.1.4 </tspan>
<tspan x="10" y="6106">  │   │ ├── uuid@2.0.3 </tspan>
<tspan x="10" y="6122">  │   │ └─┬ write-file-atomic@1.3.3 </tspan>
<tspan x="10" y="6138">  │   │   ├── imurmurhash@0.1.4 </tspan>
<tspan x="10" y="6154">  │   │   └── slide@1.1.6 </tspan>
<tspan x="10" y="6170">  │   ├── is-npm@1.0.0 </tspan>
<tspan x="10" y="6186">  │   ├─┬ latest-version@2.0.0 </tspan>
<tspan x="10" y="6202">  │   │ └─┬ package-json@2.4.0 </tspan>
<tspan x="10" y="6218">  │   │   ├─┬ got@5.7.1 </tspan>
<tspan x="10" y="6234">  │   │   │ ├── duplexer2@0.1.4 </tspan>
<tspan x="10" y="6250">  │   │   │ ├── node-status-codes@1.0.0 </tspan>
<tspan x="10" y="6266">  │   │   │ ├── read-all-stream@3.1.0 </tspan>
<tspan x="10" y="6282">  │   │   │ ├─┬ readable-stream@2.2.9 </tspan>
<tspan x="10" y="6298">  │   │   │ │ ├── buffer-shims@1.0.0 </tspan>
<tspan x="10" y="6314">  │   │   │ │ ├── core-util-is@1.0.2 </tspan>
<tspan x="10" y="6330">  │   │   │ │ ├── isarray@1.0.0 </tspan>
<tspan x="10" y="6346">  │   │   │ │ ├── process-nextick-args@1.0.7 </tspan>
<tspan x="10" y="6362">  │   │   │ │ ├── string_decoder@1.0.0 </tspan>
<tspan x="10" y="6378">  │   │   │ │ └── util-deprecate@1.0.2 </tspan>
<tspan x="10" y="6394">  │   │   │ ├── timed-out@3.1.3 </tspan>
<tspan x="10" y="6410">  │   │   │ └── unzip-response@1.0.2 </tspan>
<tspan x="10" y="6426">  │   │   ├─┬ registry-auth-token@3.2.0 </tspan>
<tspan x="10" y="6442">  │   │   │ └─┬ rc@1.2.1 </tspan>
<tspan x="10" y="6458">  │   │   │   ├── deep-extend@0.4.1 </tspan>
<tspan x="10" y="6474">  │   │   │   ├── ini@1.3.4 </tspan>
<tspan x="10" y="6490">  │   │   │   ├── minimist@1.2.0 </tspan>
<tspan x="10" y="6506">  │   │   │   └── strip-json-comments@2.0.1 </tspan>
<tspan x="10" y="6522">  │   │   └── registry-url@3.1.0 </tspan>
<tspan x="10" y="6538">  │   ├── lazy-req@1.1.0 </tspan>
<tspan x="10" y="6554">  │   ├── semver-diff@2.1.0 </tspan>
<tspan x="10" y="6570">  │   └─┬ xdg-basedir@2.0.0 </tspan>
<tspan x="10" y="6586">  │     └── os-homedir@1.0.2 </tspan>
<tspan x="10" y="6602">  ├── opener@1.4.3 </tspan>
<tspan x="10" y="6618">  ├── semver@5.3.0 </tspan>
<tspan x="10" y="6634">  └─┬ yargs@7.0.2 </tspan>
<tspan x="10" y="6650">    ├── camelcase@3.0.0 </tspan>
<tspan x="10" y="6666">    ├─┬ cliui@3.2.0 </tspan>
<tspan x="10" y="6682">    │ ├─┬ string-width@1.0.2 </tspan>
<tspan x="10" y="6698">    │ │ └── is-fullwidth-code-point@1.0.0 </tspan>
<tspan x="10" y="6714">    │ └─┬ wrap-ansi@2.1.0 </tspan>
<tspan x="10" y="6730">    │   └─┬ string-width@1.0.2 </tspan>
<tspan x="10" y="6746">    │     └── is-fullwidth-code-point@1.0.0 </tspan>
<tspan x="10" y="6762">    ├── decamelize@1.2.0 </tspan>
<tspan x="10" y="6778">    ├── get-caller-file@1.0.2 </tspan>
<tspan x="10" y="6794">    ├─┬ os-locale@1.4.0 </tspan>
<tspan x="10" y="6810">    │ └─┬ lcid@1.0.0 </tspan>
<tspan x="10" y="6826">    │   └── invert-kv@1.0.0 </tspan>
<tspan x="10" y="6842">    ├─┬ read-pkg-up@1.0.1 </tspan>
<tspan x="10" y="6858">    │ └─┬ read-pkg@1.1.0 </tspan>
<tspan x="10" y="6874">    │   ├─┬ load-json-file@1.1.0 </tspan>
<tspan x="10" y="6890">    │   │ ├─┬ parse-json@2.2.0 </tspan>
<tspan x="10" y="6906">    │   │ │ └─┬ error-ex@1.3.1 </tspan>
<tspan x="10" y="6922">    │   │ │   └── is-arrayish@0.2.1 </tspan>
<tspan x="10" y="6938">    │   │ └─┬ strip-bom@2.0.0 </tspan>
<tspan x="10" y="6954">    │   │   └── is-utf8@0.2.1 </tspan>
<tspan x="10" y="6970">    │   ├─┬ normalize-package-data@2.3.8 </tspan>
<tspan x="10" y="6986">    │   │ ├── hosted-git-info@2.4.2 </tspan>
<tspan x="10" y="7002">    │   │ ├─┬ is-builtin-module@1.0.0 </tspan>
<tspan x="10" y="7018">    │   │ │ └── builtin-modules@1.1.1 </tspan>
<tspan x="10" y="7034">    │   │ └─┬ validate-npm-package-license@3.0.1 </tspan>
<tspan x="10" y="7050">    │   │   ├─┬ spdx-correct@1.0.2 </tspan>
<tspan x="10" y="7066">    │   │   │ └── spdx-license-ids@1.2.2 </tspan>
<tspan x="10" y="7082">    │   │   └── spdx-expression-parse@1.0.4 </tspan>
<tspan x="10" y="7098">    │   └── path-type@1.1.0 </tspan>
<tspan x="10" y="7114">    ├── require-directory@2.1.1 </tspan>
<tspan x="10" y="7130">    ├── require-main-filename@1.0.1 </tspan>
<tspan x="10" y="7146">    ├── set-blocking@2.0.0 </tspan>
<tspan x="10" y="7162">    ├─┬ string-width@1.0.2 </tspan>
<tspan x="10" y="7178">    │ ├── code-point-at@1.1.0 </tspan>
<tspan x="10" y="7194">    │ └─┬ is-fullwidth-code-point@1.0.0 </tspan>
<tspan x="10" y="7210">    │   └── number-is-nan@1.0.1 </tspan>
<tspan x="10" y="7226">    ├── which-module@1.0.0 </tspan>
<tspan x="10" y="7242">    ├── y18n@3.2.1 </tspan>
<tspan x="10" y="7258">    └─┬ yargs-parser@5.0.0 </tspan>
<tspan x="10" y="7274">      └── camelcase@3.0.0</tspan>
</text>
</svg>
